<?xml version="1.0" standalone="no"?>
<!DOCTYPE svg PUBLIC "-//W3C//DTD SVG 20010904//EN"
 "http://www.w3.org/TR/2001/REC-SVG-20010904/DTD/svg10.dtd">
<svg version="1.0" xmlns="http://www.w3.org/2000/svg"
 width="1080.000000pt" height="1080.000000pt" viewBox="0 0 1080.000000 1080.000000"
 preserveAspectRatio="xMidYMid meet">

<g transform="translate(0.000000,1080.000000) scale(0.100000,-0.100000)"
fill="#164134" stroke="none">
<path d="M4945 10609 c-289 -15 -696 -77 -895 -135 -30 -8 -65 -18 -78 -21
-55 -13 -55 -12 -47 -516 l7 -462 35 -43 c76 -93 117 -233 93 -318 -7 -24 -11
-46 -9 -49 3 -2 54 13 115 34 60 21 121 40 134 43 14 4 61 16 105 28 139 37
130 35 335 74 319 61 756 69 1080 20 182 -27 303 -52 445 -89 55 -14 114 -30
130 -34 44 -12 289 -95 365 -124 144 -55 454 -206 562 -274 21 -13 40 -23 42
-23 10 0 198 -119 286 -181 554 -392 1025 -941 1292 -1509 53 -111 88 -190 88
-195 0 -3 9 -24 19 -48 30 -66 78 -202 101 -287 7 -25 18 -65 25 -90 49 -177
72 -276 114 -487 6 -27 17 -100 25 -163 8 -63 20 -150 26 -193 15 -118 13
-592 -5 -749 -16 -150 -31 -257 -46 -338 -19 -105 -61 -285 -70 -302 -5 -10
-9 -27 -9 -37 0 -11 -4 -30 -9 -43 -4 -13 -16 -50 -26 -83 -24 -80 -84 -265
-95 -290 -5 -11 -23 -58 -40 -105 -95 -254 -276 -587 -452 -832 -274 -381
-689 -811 -820 -848 -18 -6 -777 -10 -1842 -10 -996 -1 -1816 -4 -1822 -8 -12
-9 -34 -80 -34 -114 0 -16 -13 -38 -37 -59 -20 -19 -51 -48 -70 -65 l-33 -32
0 -318 c-1 -726 1 -979 8 -985 7 -6 178 -52 257 -69 237 -50 419 -76 720 -100
155 -12 599 -12 740 0 306 26 496 51 620 79 22 5 67 14 100 21 33 6 78 15 100
20 192 45 264 62 285 70 14 4 66 20 115 35 133 41 237 75 260 84 11 5 90 37
175 71 142 57 310 135 385 180 17 9 55 31 85 47 138 75 282 161 363 214 403
269 901 734 1259 1176 116 143 236 319 358 523 140 237 223 392 300 565 12 28
33 74 46 103 13 29 24 57 24 62 0 6 4 18 10 28 9 16 70 188 91 257 5 17 24 77
43 135 32 102 57 189 75 260 5 19 14 53 20 75 26 101 64 332 91 545 5 47 15
121 21 165 6 44 13 237 16 430 6 437 -16 697 -89 1060 -11 55 -22 111 -25 125
-2 14 -8 41 -13 60 -5 19 -16 67 -25 105 -9 39 -20 81 -24 95 -5 14 -14 45
-21 70 -17 59 -105 328 -121 366 -6 16 -15 38 -19 49 -5 11 -17 41 -29 67 -12
26 -21 51 -21 54 0 6 -8 24 -49 116 -11 26 -21 50 -21 53 0 6 -67 150 -120
255 -120 242 -331 572 -534 835 -261 339 -655 724 -990 969 -123 90 -467 316
-481 316 -2 0 -36 19 -77 43 -79 47 -399 206 -513 255 -209 90 -492 183 -805
262 -129 33 -143 36 -295 64 -368 69 -806 91 -1280 65z m2303 -8905 c35 -17
72 -63 72 -89 0 -29 -30 -74 -60 -90 -26 -13 -208 -15 -1534 -15 l-1504 0 -31
26 c-26 21 -31 33 -31 67 0 24 8 51 18 64 43 55 -36 52 1563 53 1318 0 1479
-2 1507 -16z m-859 -435 c38 -37 40 -82 8 -121 -48 -59 -35 -58 -753 -58 -640
0 -657 1 -689 20 -70 43 -68 132 3 170 36 18 64 19 719 20 l681 0 31 -31z"/>
<path d="M3600 10346 c-142 -52 -196 -73 -225 -87 l-30 -14 -3 -368 -2 -367
26 -10 c38 -15 307 -13 322 2 17 17 17 839 0 856 -15 15 -11 16 -88 -12z"/>
<path d="M2904 10062 c-72 -38 -150 -83 -173 -101 l-41 -33 0 -219 0 -219 193
2 192 3 0 305 c0 168 -1 311 -3 318 -7 22 -35 13 -168 -56z"/>
<path d="M2315 9693 c-120 -79 -208 -149 -375 -299 -156 -140 -473 -461 -567
-574 -353 -427 -661 -935 -858 -1415 -82 -200 -169 -463 -215 -645 -4 -19 -13
-53 -19 -75 -6 -22 -18 -74 -26 -115 -9 -41 -20 -93 -25 -115 -76 -339 -116
-830 -105 -1290 3 -143 10 -294 15 -335 5 -41 17 -131 25 -200 19 -147 26
-188 65 -365 11 -50 49 -199 61 -242 5 -18 13 -48 17 -65 14 -51 53 -181 62
-203 5 -11 20 -54 35 -95 15 -41 33 -88 40 -105 7 -16 33 -82 58 -145 69 -175
201 -454 274 -578 24 -41 43 -75 43 -77 0 -7 133 -213 208 -323 196 -288 312
-429 592 -715 228 -233 460 -433 704 -607 70 -51 92 -61 105 -53 15 9 16 84
19 839 4 952 2 973 -59 1057 -80 107 -112 213 -91 293 17 63 44 120 87 184 71
105 66 8 64 1234 -1 611 -5 1176 -9 1256 -7 147 -18 186 -66 240 -7 9 -26 42
-41 75 -23 51 -28 73 -28 145 0 92 17 138 93 258 22 35 37 74 43 115 13 86 6
2048 -8 2104 -6 24 -33 76 -61 117 -37 55 -55 94 -67 148 -16 68 -16 77 -1
136 15 60 40 104 114 201 l33 44 -6 111 c-6 114 -11 146 -23 146 -4 -1 -52
-30 -107 -67z"/>
<path d="M2558 9263 c-71 -45 -77 -166 -12 -224 11 -10 39 -28 64 -42 80 -44
75 37 75 -1197 0 -602 -3 -1113 -7 -1134 l-7 -39 188 6 c103 4 194 9 202 12
12 4 14 176 11 1135 -3 1103 -3 1131 17 1174 49 112 183 112 232 0 20 -44 20
-66 18 -1168 -1 -618 1 -1128 5 -1134 6 -9 374 -8 384 2 2 3 -3 26 -12 52 -12
37 -16 87 -16 218 0 245 -3 234 104 342 92 92 330 294 347 294 5 0 36 -22 69
-49 56 -45 194 -121 219 -121 6 0 19 -4 29 -10 9 -5 53 -19 97 -31 173 -46
273 -56 631 -65 266 -6 294 -6 294 9 0 14 -58 67 -73 67 -4 0 -29 16 -56 35
-26 19 -51 35 -55 35 -3 0 -30 15 -59 34 -30 19 -107 61 -173 94 -150 76 -241
107 -413 142 -86 17 -122 32 -110 45 3 2 48 13 100 24 52 11 121 27 154 36 33
10 76 21 96 26 119 28 379 148 539 249 103 64 351 227 383 252 12 9 19 20 14
24 -8 9 -381 -11 -472 -25 -88 -14 -153 -27 -215 -45 -30 -8 -66 -18 -80 -22
-59 -15 -266 -99 -343 -139 -47 -24 -133 -77 -191 -117 -182 -124 -206 -139
-206 -127 0 6 29 54 65 108 117 176 251 488 305 711 58 241 67 286 58 295 -13
15 -313 -297 -389 -405 -87 -123 -185 -298 -218 -390 -7 -19 -17 -44 -22 -55
-23 -55 -40 -153 -46 -268 l-6 -127 -49 -35 c-26 -19 -96 -77 -156 -128 -110
-96 -151 -127 -164 -127 -14 0 -10 1393 4 1445 10 36 27 59 80 110 l68 64 0
70 c0 69 -1 70 -37 98 l-36 28 -601 2 c-553 3 -603 1 -628 -14z"/>
<path d="M6338 6696 c-202 -90 -337 -220 -433 -417 -43 -88 -78 -197 -95 -294
-13 -75 -9 -261 8 -355 29 -163 142 -360 289 -500 104 -100 184 -147 368 -216
70 -26 126 -35 255 -40 194 -8 293 11 453 84 196 91 332 216 430 394 40 72 86
219 97 306 6 42 12 91 15 107 5 27 -17 170 -27 180 -2 3 -14 -34 -26 -82 -73
-283 -280 -507 -538 -580 -111 -31 -403 -21 -499 17 -199 79 -345 195 -447
355 -90 141 -121 250 -121 420 1 201 51 344 162 469 72 80 66 75 146 131 39
27 74 52 80 57 22 19 -26 4 -117 -36z"/>
<path d="M2797 6430 l-229 -5 -29 -32 c-69 -79 -50 -130 89 -241 28 -22 45
-45 52 -72 7 -26 10 -452 8 -1329 l-3 -1291 194 2 193 3 -1 1297 c-2 1192 -1
1300 14 1333 42 87 173 102 232 25 32 -42 34 -134 27 -1374 -3 -677 -8 -1232
-9 -1234 -1 -2 2 -13 8 -26 11 -23 17 -24 157 -30 80 -4 158 -3 174 2 l28 8
-1 273 -2 273 107 109 c102 103 128 120 149 100 6 -4 42 -20 80 -34 247 -90
574 -81 930 25 155 46 231 70 250 78 11 4 46 16 77 25 55 16 87 38 71 48 -11
7 -100 34 -213 64 -194 53 -268 63 -500 70 -229 6 -296 -2 -478 -59 -34 -11
-67 -18 -74 -16 -6 2 36 41 94 85 243 189 422 425 627 828 73 143 90 185 76
185 -2 0 -44 -21 -92 -46 -242 -128 -528 -359 -683 -553 -117 -147 -181 -259
-245 -431 -12 -33 -33 -59 -80 -97 -35 -29 -71 -53 -79 -53 -14 0 -16 87 -16
873 0 987 -7 904 83 965 58 41 78 73 79 130 2 62 -12 85 -67 111 -44 21 -56
21 -408 19 -199 -1 -465 -5 -590 -8z"/>
<path d="M5133 3818 c-190 -137 -437 -377 -579 -563 -41 -54 -105 -159 -133
-220 -13 -27 -36 -77 -52 -110 -38 -82 -66 -192 -74 -295 l-7 -85 -82 -75
c-157 -145 -330 -326 -443 -465 -57 -69 -58 -65 -61 424 -3 431 -3 440 18 484
12 25 42 62 66 82 24 20 51 50 59 65 22 42 19 112 -5 143 -46 58 -32 57 -652
57 -559 0 -569 0 -614 -21 -49 -24 -74 -60 -74 -110 0 -47 32 -90 95 -128 98
-60 90 42 93 -1107 l2 -1012 27 -26 c15 -15 96 -61 181 -103 191 -94 189 -94
182 38 -3 52 -5 549 -5 1106 0 1011 0 1012 21 1040 31 42 83 73 120 73 49 0
99 -53 113 -121 8 -36 11 -390 11 -1186 0 -623 2 -1138 5 -1143 9 -14 93 -51
214 -95 76 -27 109 -35 120 -28 14 9 17 79 21 569 4 374 9 569 16 590 20 52
41 86 111 175 143 182 222 270 406 451 l190 186 31 -17 c46 -25 100 -39 221
-56 97 -13 130 -13 275 -1 91 8 172 16 180 19 8 3 51 13 95 22 44 9 89 20 100
24 23 9 22 9 285 97 190 63 235 85 215 102 -6 5 -46 16 -90 26 -44 10 -96 22
-115 26 -194 49 -332 63 -537 56 -151 -5 -193 -3 -192 7 1 24 425 345 624 472
242 154 745 360 964 396 37 6 90 15 120 20 73 12 564 12 654 -1 155 -22 265
-43 327 -62 69 -21 192 -64 225 -78 11 -5 47 -18 80 -29 33 -10 90 -31 128
-45 86 -33 120 -34 137 -2 15 30 6 74 -18 83 -9 4 -39 20 -67 36 -122 72 -350
176 -432 196 -21 6 -54 14 -73 20 -118 33 -226 57 -330 72 -116 17 -408 22
-530 10 -282 -29 -552 -93 -753 -177 -129 -54 -155 -66 -256 -117 -238 -119
-407 -229 -716 -467 -197 -152 -195 -151 -195 -130 0 5 20 40 43 77 62 96 107
183 151 293 21 52 44 109 51 125 7 17 22 57 35 90 12 33 26 69 30 80 25 61 80
214 86 238 8 33 -2 34 -43 5z"/>
</g>
</svg>
